# xmcd CD database file
#
# Track frame offsets:
#	150
#	4288
#	24008
#	41229
#	73810
#	89974
#	112217
#	154270
#	175845
#	210125
#
# Disc length: 3705 seconds
#
# Revision: 0
# Processed by: cddbd v1.5.2PL0 Copyright (c) Steve Scherf et al.
# Submitted via: CDex 1.75
#
DISCID=870e770a
DTITLE=Andrew Holecek - Dream Yoga d2 - Lucid Dream Induction Techniques
DYEAR=2013
DGENRE=New Age
TTITLE0=Intro
TTITLE1=Samsaric dreams and dreams of clarity
TTITLE2=Clear light dreams
TTITLE3=Other types of dreams
TTITLE4=The lucid dream
TTITLE5=Induction techniques
TTITLE6=Building dream recall and developing a strong motivation
TTITLE7=Daytime techniques
TTITLE8=Working with dream signs
TTITLE9=Nighttime techniques
EXTD=YEAR: 2013
EXTT0=
EXTT1=
EXTT2=
EXTT3=
EXTT4=
EXTT5=
EXTT6=
EXTT7=
EXTT8=
EXTT9=
PLAYORDER=
